<svg width="23" height="24" viewBox="0 0 23 24" fill="none" xmlns="http://www.w3.org/2000/svg">
<path d="M20.875 9.91634H2.125M15.6667 1.58301V5.74967M7.33333 1.58301V5.74967M7.125 22.4163H15.875C17.6252 22.4163 18.5002 22.4163 19.1687 22.0757C19.7567 21.7761 20.2348 21.2981 20.5344 20.7101C20.875 20.0416 20.875 19.1665 20.875 17.4163V8.66634C20.875 6.91618 20.875 6.0411 20.5344 5.37262C20.2348 4.78461 19.7567 4.30655 19.1687 4.00695C18.5002 3.66634 17.6252 3.66634 15.875 3.66634H7.125C5.37484 3.66634 4.49975 3.66634 3.83128 4.00695C3.24327 4.30655 2.76521 4.78461 2.4656 5.37262C2.125 6.0411 2.125 6.91618 2.125 8.66634V17.4163C2.125 19.1665 2.125 20.0416 2.4656 20.7101C2.76521 21.2981 3.24327 21.7761 3.83128 22.0757C4.49975 22.4163 5.37484 22.4163 7.125 22.4163Z" stroke="#444145" stroke-width="2.5" stroke-linecap="round" stroke-linejoin="round"/>
</svg>
