<svg width="26" height="26" viewBox="0 0 26 26" fill="none" xmlns="http://www.w3.org/2000/svg">
<path d="M8 19.25L1.75 13M1.75 13L8 6.75M1.75 13H16.75M13 19.25C13 20.4125 13 20.9937 13.1278 21.4706C13.4745 22.7647 14.4853 23.7755 15.7794 24.1222C16.2563 24.25 16.8375 24.25 18 24.25H18.625C20.3723 24.25 21.2459 24.25 21.9351 23.9645C22.8539 23.5839 23.5839 22.8539 23.9645 21.9351C24.25 21.2459 24.25 20.3723 24.25 18.625V7.375C24.25 5.62772 24.25 4.75408 23.9645 4.06494C23.5839 3.14608 22.8539 2.41605 21.9351 2.03545C21.2459 1.75 20.3723 1.75 18.625 1.75H18C16.8375 1.75 16.2563 1.75 15.7794 1.87778C14.4853 2.22453 13.4745 3.23533 13.1278 4.52943C13 5.0063 13 5.58754 13 6.75" stroke="white" stroke-width="2" stroke-linecap="round" stroke-linejoin="round"/>
</svg>
