<svg width="28" height="26" viewBox="0 0 28 26" fill="none" xmlns="http://www.w3.org/2000/svg">
<path d="M4.34012 23.9099L12.5858 15.6642C13.0808 15.1692 13.3283 14.9217 13.6137 14.8289C13.8648 14.7474 14.1352 14.7474 14.3863 14.8289C14.6717 14.9217 14.9192 15.1692 15.4142 15.6642L23.6049 23.8549M16.5 16.75L20.0858 13.1642C20.5808 12.6692 20.8283 12.4217 21.1137 12.3289C21.3648 12.2474 21.6352 12.2474 21.8863 12.3289C22.1717 12.4217 22.4192 12.6692 22.9142 13.1642L26.5 16.75M11.5 9.25C11.5 10.6307 10.3807 11.75 9 11.75C7.61929 11.75 6.5 10.6307 6.5 9.25C6.5 7.86929 7.61929 6.75 9 6.75C10.3807 6.75 11.5 7.86929 11.5 9.25ZM7.5 24.25H20.5C22.6002 24.25 23.6503 24.25 24.4525 23.8413C25.1581 23.4817 25.7317 22.9081 26.0913 22.2025C26.5 21.4003 26.5 20.3502 26.5 18.25V7.75C26.5 5.6498 26.5 4.5997 26.0913 3.79754C25.7317 3.09193 25.1581 2.51825 24.4525 2.15873C23.6503 1.75 22.6002 1.75 20.5 1.75H7.5C5.3998 1.75 4.3497 1.75 3.54754 2.15873C2.84193 2.51825 2.26825 3.09193 1.90873 3.79754C1.5 4.5997 1.5 5.6498 1.5 7.75V18.25C1.5 20.3502 1.5 21.4003 1.90873 22.2025C2.26825 22.9081 2.84193 23.4817 3.54754 23.8413C4.3497 24.25 5.3998 24.25 7.5 24.25Z" stroke="#444145" stroke-width="2" stroke-linecap="round" stroke-linejoin="round"/>
</svg>
