<svg width="30" height="30" viewBox="0 0 30 30" fill="none" xmlns="http://www.w3.org/2000/svg">
<path d="M3 11.4615C3 9.19979 3 8.06891 3.40038 7.20504C3.75257 6.44515 4.31454 5.82735 5.00575 5.44017C5.79155 5 6.82022 5 8.87755 5H21.1224C23.1798 5 24.2085 5 24.9942 5.44017C25.6855 5.82735 26.2474 6.44515 26.5996 7.20504C27 8.06891 27 9.19979 27 11.4615V19.5385C27 21.8002 27 22.9311 26.5996 23.795C26.2474 24.5548 25.6855 25.1727 24.9942 25.5598C24.2085 26 23.1798 26 21.1224 26H8.87755C6.82022 26 5.79155 26 5.00575 25.5598C4.31454 25.1727 3.75257 24.5548 3.40038 23.795C3 22.9311 3 21.8002 3 19.5385V11.4615Z" stroke="white" stroke-width="2" stroke-linecap="round" stroke-linejoin="round"/>
<path d="M7 21L10.125 16.8333C10.8523 15.8636 12.2681 15.7586 13.1304 16.6103L14.8093 18.2684C15.7129 19.1609 17.2088 18.996 17.8963 17.928L23 10" stroke="white" stroke-width="2" stroke-linecap="round"/>
</svg>
