<svg width="28" height="26" viewBox="0 0 28 26" fill="none" xmlns="http://www.w3.org/2000/svg">
<path d="M21.5 17.7961C23.3199 18.7103 24.8802 20.1774 26.0191 22.012C26.2446 22.3753 26.3574 22.557 26.3963 22.8085C26.4756 23.3197 26.126 23.9482 25.6499 24.1505C25.4156 24.25 25.1521 24.25 24.625 24.25M19 12.4153C20.8522 11.4949 22.125 9.58358 22.125 7.375C22.125 5.16642 20.8522 3.25514 19 2.3347M16.5 7.375C16.5 10.4816 13.9816 13 10.875 13C7.7684 13 5.25 10.4816 5.25 7.375C5.25 4.2684 7.7684 1.75 10.875 1.75C13.9816 1.75 16.5 4.2684 16.5 7.375ZM2.19904 21.6729C4.19192 18.6807 7.33672 16.75 10.875 16.75C14.4133 16.75 17.5581 18.6807 19.551 21.6729C19.9875 22.3284 20.2058 22.6562 20.1807 23.0749C20.1611 23.4009 19.9474 23.8 19.687 23.997C19.3524 24.25 18.8923 24.25 17.9721 24.25H3.77795C2.85772 24.25 2.3976 24.25 2.06305 23.997C1.80256 23.8 1.58886 23.4009 1.56929 23.0749C1.54416 22.6562 1.76245 22.3284 2.19904 21.6729Z" stroke="white" stroke-width="2" stroke-linecap="round" stroke-linejoin="round"/>
</svg>
